<svg xmlns="http://www.w3.org/2000/svg" width="50" height="50" style="background:#f2f2f2" viewBox="0 0 50 50">
  <g fill="none" fill-rule="evenodd">
    <circle cx="25" cy="25" r="24.5" fill="#FFF"/>
    <path fill="#000" fill-rule="nonzero" d="M38,20.9151194 C38,18.390303 35.8974527,16.3342175 33.3118835,16.3342175 C30.7263144,16.3342175 28.6237671,18.390303 28.6237671,20.9151194 C28.6237671,21.100201 28.7789854,21.2519894 28.9719482,21.2519894 C29.164911,21.2519894 29.3201294,21.100201 29.3201294,20.9151194 C29.3201294,18.7600419 31.111806,17.0079576 33.3118835,17.0079576 C35.5119611,17.0079576 37.3036377,18.7600419 37.3036377,20.9151194 C37.3036377,23.0701969 35.5119611,24.8222812 33.3118835,24.8222812 L13.3481812,24.8222812 C13.1552184,24.8222812 13,24.9740695 13,25.1591512 C13,25.3442328 13.1552184,25.4960212 13.3481812,25.4960212 L33.3118835,25.4960212 C35.8974527,25.4960212 38,23.4399358 38,20.9151194 Z M13.3649192,20.8275862 L24.1824769,20.8275862 C26.1241809,20.8275862 27.7025172,19.2950027 27.7025172,17.4137931 C27.7025172,15.5325835 26.1241809,14 24.1824769,14 C22.240773,14 20.6624367,15.5325835 20.6624367,17.4137931 C20.6624367,17.6060505 20.8250251,17.7639257 21.0273559,17.7639257 C21.2296868,17.7639257 21.3922752,17.6060505 21.3922752,17.4137931 C21.3922752,15.9162229 22.6445332,14.7002653 24.1824769,14.7002653 C25.7204207,14.7002653 26.9726787,15.9162229 26.9726787,17.4137931 C26.9726787,18.9113633 25.7204207,20.127321 24.1824769,20.127321 L13.3649192,20.127321 C13.1625884,20.127321 13,20.2851962 13,20.4774536 C13,20.6697109 13.1625884,20.8275862 13.3649192,20.8275862 Z M28.9070684,29.1724138 L13.3464277,29.1724138 C13.1550828,29.1724138 13,29.3294433 13,29.5225464 C13,29.7156495 13.1550828,29.872679 13.3464277,29.872679 L28.9070684,29.872679 C30.3846023,29.872679 31.5863209,31.0894824 31.5863209,32.5862069 C31.5863209,34.0829314 30.3846023,35.2997347 28.9070684,35.2997347 C27.4295345,35.2997347 26.2278159,34.0829314 26.2278159,32.5862069 C26.2278159,32.3931038 26.0727331,32.2360743 25.8813883,32.2360743 C25.6900434,32.2360743 25.5349606,32.3931038 25.5349606,32.5862069 C25.5349606,34.4682622 27.0477093,36 28.9070684,36 C30.7664275,36 32.2791762,34.4682622 32.2791762,32.5862069 C32.2791762,30.7041516 30.7664275,29.1724138 28.9070684,29.1724138 Z"/>
  </g>
</svg>
