<?xml version="1.0" standalone="no"?>
<!DOCTYPE svg PUBLIC "-//W3C//DTD SVG 20010904//EN"
 "http://www.w3.org/TR/2001/REC-SVG-20010904/DTD/svg10.dtd">
<svg version="1.0" xmlns="http://www.w3.org/2000/svg"
 width="40.000000pt" height="40.000000pt" viewBox="0 0 40.000000 40.000000"
 preserveAspectRatio="xMidYMid meet">

<g transform="translate(0.000000,40.000000) scale(0.100000,-0.100000)"
fill="#000000" stroke="none">
<path d="M269 269 c-8 -16 -8 -23 1 -29 8 -5 9 -16 5 -31 -7 -23 -7 -23 8 -4
13 17 13 22 2 35 -10 11 -11 20 -4 33 6 9 8 17 5 17 -3 0 -10 -10 -17 -21z"/>
<path d="M315 269 c-4 -12 -2 -26 4 -32 7 -7 7 -16 -1 -31 -10 -20 -9 -20 7
-4 15 14 16 20 6 32 -7 8 -10 24 -6 36 3 11 4 20 1 20 -2 0 -8 -9 -11 -21z"/>
<path d="M60 135 c0 -25 1 -25 90 -25 89 0 90 0 90 25 0 25 -1 25 -90 25 -89
0 -90 0 -90 -25z"/>
<path d="M270 135 c0 -18 5 -25 20 -25 15 0 20 7 20 25 0 18 -5 25 -20 25 -15
0 -20 -7 -20 -25z"/>
</g>
</svg>
