<?xml version="1.0" standalone="no"?>
<!DOCTYPE svg PUBLIC "-//W3C//DTD SVG 20010904//EN"
 "http://www.w3.org/TR/2001/REC-SVG-20010904/DTD/svg10.dtd">
<svg version="1.0" xmlns="http://www.w3.org/2000/svg"
 width="512.000000pt" height="512.000000pt" viewBox="0 0 512.000000 512.000000"
 preserveAspectRatio="xMidYMid meet">

<g transform="translate(0.000000,512.000000) scale(0.100000,-0.100000)"
fill="#000000" stroke="none">
<path d="M29 5091 l-29 -29 0 -1557 c0 -1164 3 -1562 12 -1578 25 -47 19 -46
486 -47 l442 0 0 -79 c0 -79 0 -79 -33 -100 -59 -36 -136 -128 -172 -203 -91
-191 -56 -408 89 -565 l57 -62 -43 -22 c-67 -34 -137 -90 -205 -162 -135 -145
-203 -318 -203 -524 0 -118 3 -129 41 -148 42 -22 4136 -22 4178 0 38 19 41
30 41 148 0 206 -68 379 -203 524 -68 72 -138 128 -205 162 l-43 22 57 62
c145 157 180 374 89 565 -36 75 -113 167 -172 203 -33 21 -33 21 -33 100 l0
79 443 0 c466 1 460 0 485 47 9 16 12 414 12 1578 l0 1557 -29 29 -29 29
-2502 0 -2502 0 -29 -29z m4921 -1591 l0 -1450 -385 0 -385 0 0 124 0 124 146
4 c146 3 146 3 170 31 24 28 24 31 24 227 0 196 0 199 -24 227 l-24 28 -571 3
-571 3 0 161 0 161 33 -27 c155 -127 287 -168 425 -132 80 20 126 44 185 96
49 43 522 684 541 732 20 53 1 75 -192 221 -198 150 -228 164 -274 128 -14
-12 -108 -136 -208 -276 -100 -140 -185 -255 -190 -255 -4 0 -61 43 -126 95
-189 151 -275 188 -472 201 -102 7 -102 7 -87 28 32 44 76 138 90 193 66 253
-85 519 -346 609 -74 26 -224 26 -298 0 -215 -74 -361 -270 -361 -486 0 -104
41 -228 105 -316 15 -21 15 -21 -87 -28 -197 -13 -283 -50 -472 -201 -65 -52
-122 -95 -126 -95 -5 0 -90 115 -190 255 -100 140 -194 264 -208 276 -46 36
-76 22 -274 -128 -193 -146 -212 -168 -192 -221 19 -48 492 -689 541 -732 59
-52 101 -74 184 -95 139 -37 270 3 426 131 l33 27 0 -161 0 -161 -571 -3 -571
-3 -24 -28 c-24 -28 -24 -31 -24 -227 0 -196 0 -199 24 -227 24 -28 24 -28
170 -31 l146 -4 0 -124 0 -124 -385 0 -385 0 0 1450 0 1450 2390 0 2390 0 0
-1450z m-2248 1073 c68 -30 139 -102 171 -171 17 -36 22 -66 22 -132 0 -76 -3
-92 -33 -152 -36 -73 -87 -124 -161 -160 -66 -33 -216 -33 -282 0 -74 36 -125
87 -161 160 -30 60 -33 76 -33 152 0 101 21 154 86 225 101 110 252 140 391
78z m-1509 -860 c186 -261 210 -289 237 -293 43 -6 72 11 222 130 90 72 192
145 228 163 l65 32 615 0 615 0 65 -32 c36 -18 138 -91 228 -163 150 -119 179
-136 222 -130 27 4 51 32 237 293 101 141 187 257 190 257 12 0 193 -141 193
-150 0 -12 -390 -552 -429 -593 -52 -57 -108 -81 -185 -81 -91 -1 -115 12
-285 153 -150 124 -178 135 -226 86 l-25 -24 0 -271 0 -270 -255 0 -255 0 0
380 0 380 -90 0 -90 0 0 -380 0 -380 -255 0 -255 0 0 270 0 271 -25 24 c-48
49 -76 38 -226 -86 -170 -141 -194 -154 -285 -153 -77 0 -133 24 -185 81 -39
41 -429 581 -429 593 0 10 179 149 192 150 4 0 90 -116 191 -257z m3157 -1153
l0 -90 -255 0 -255 0 0 -85 0 -85 85 0 85 0 0 -255 0 -255 -1450 0 -1450 0 0
305 c0 320 -4 353 -45 369 -9 3 -79 6 -156 6 l-139 0 0 90 0 90 1790 0 1790 0
0 -90z m-3066 -952 c283 -83 338 -464 88 -615 -209 -127 -466 -11 -511 230
-44 240 190 453 423 385z m886 6 c0 -3 -11 -20 -24 -37 -143 -192 -122 -477
49 -653 l50 -51 -55 -31 c-112 -62 -257 -205 -291 -284 -6 -16 -15 -28 -19
-28 -4 0 -23 26 -43 58 -48 77 -178 200 -261 247 l-66 37 55 60 c96 103 138
211 137 348 0 103 -27 196 -78 271 -19 29 -37 56 -40 61 -3 4 128 8 290 8 163
0 296 -3 296 -6z m531 -26 c69 -32 135 -98 168 -168 22 -46 26 -69 26 -140 0
-103 -27 -170 -96 -239 -69 -69 -136 -96 -239 -96 -103 0 -170 27 -239 96 -69
69 -96 136 -96 239 0 71 4 94 26 140 28 59 94 132 143 157 96 50 213 54 307
11z m835 24 c-3 -5 -21 -32 -40 -61 -51 -75 -78 -168 -78 -271 -1 -137 41
-245 137 -348 l55 -60 -66 -37 c-83 -47 -213 -170 -261 -247 -20 -32 -39 -58
-43 -58 -4 0 -13 12 -19 28 -34 79 -179 222 -291 284 l-55 31 50 51 c171 176
192 461 49 653 -13 17 -24 34 -24 37 0 3 133 6 296 6 162 0 293 -4 290 -8z
m485 -6 c239 -73 321 -364 157 -552 -204 -232 -590 -84 -590 226 0 226 219
391 433 326z m-2650 -866 c193 -59 358 -237 404 -432 8 -35 15 -80 15 -100 l0
-38 -595 0 -595 0 0 38 c0 82 50 227 105 305 60 85 182 180 282 217 117 44
264 48 384 10z m1376 -5 c172 -58 300 -178 366 -345 22 -56 47 -165 47 -207 0
-10 -127 -13 -600 -13 -473 0 -600 3 -600 13 0 42 25 151 47 207 45 112 119
206 214 271 158 107 347 134 526 74z m1355 5 c109 -33 231 -120 304 -215 59
-78 114 -229 114 -317 l0 -38 -595 0 -595 0 0 38 c1 206 176 443 387 522 117
44 263 48 385 10z"/>
<path d="M3930 4695 l0 -85 85 0 85 0 0 85 0 85 -85 0 -85 0 0 -85z"/>
<path d="M4270 4695 l0 -85 85 0 85 0 0 85 0 85 -85 0 -85 0 0 -85z"/>
<path d="M4610 4695 l0 -85 85 0 85 0 0 85 0 85 -85 0 -85 0 0 -85z"/>
<path d="M3500 2385 l0 -85 85 0 85 0 0 85 0 85 -85 0 -85 0 0 -85z"/>
</g>
</svg>
