<?xml version="1.0" encoding="iso-8859-1"?>
<!-- Generator: Adobe Illustrator 19.0.0, SVG Export Plug-In . SVG Version: 6.00 Build 0)  -->
<svg version="1.1" id="Layer_1" xmlns="http://www.w3.org/2000/svg" xmlns:xlink="http://www.w3.org/1999/xlink" x="0px" y="0px"
	 viewBox="0 0 330.655 330.655" style="enable-background:new 0 0 330.655 330.655;" xml:space="preserve">
<g id="XMLID_21_">
	<g>
		<path d="M255.203,201.526h15.452c33.084,0,60-26.916,60-60c0-33.084-26.916-60-60-60h-0.194
			c-0.012-12.151-0.027-21.429-0.043-21.914l-0.017-0.483h-250.8l-0.018,0.482c-0.049,1.422-0.082,78.628-0.083,81.914
			c0,40.773,19.549,77.061,49.761,100H0v30h290v-30h-69.261C234.858,230.807,246.649,217.174,255.203,201.526z M270.499,141.526
			c0-1.319-0.006-14.546-0.016-30c0,0,0.171,0,0.171,0c16.542,0,30,13.458,30,30s-13.458,30-30,30h-3.788
			C269.234,161.909,270.499,151.864,270.499,141.526z"/>
	</g>
</g>
<g>
</g>
<g>
</g>
<g>
</g>
<g>
</g>
<g>
</g>
<g>
</g>
<g>
</g>
<g>
</g>
<g>
</g>
<g>
</g>
<g>
</g>
<g>
</g>
<g>
</g>
<g>
</g>
<g>
</g>
</svg>
