<?xml version="1.0" standalone="no"?>
<!DOCTYPE svg PUBLIC "-//W3C//DTD SVG 20010904//EN"
 "http://www.w3.org/TR/2001/REC-SVG-20010904/DTD/svg10.dtd">
<svg version="1.0" xmlns="http://www.w3.org/2000/svg"
 width="208.000000pt" height="208.000000pt" viewBox="0 0 208.000000 208.000000"
 preserveAspectRatio="xMidYMid meet">

<g transform="translate(0.000000,208.000000) scale(0.100000,-0.100000)"
fill="#000000" stroke="none">
<path d="M0 1040 l0 -1040 1040 0 1040 0 0 1040 0 1040 -1040 0 -1040 0 0
-1040z m1232 1006 c369 -73 666 -335 781 -691 37 -114 47 -182 47 -317 0 -277
-96 -512 -290 -708 -163 -165 -335 -256 -556 -295 -690 -120 -1299 489 -1179
1179 39 221 130 393 295 556 143 141 310 232 505 273 91 20 302 21 397 3z"/>
<path d="M876 1591 c-3 -5 29 -115 71 -245 l77 -236 192 0 192 0 48 -147 49
-148 44 -3 c25 -2 55 -1 68 3 43 10 23 25 -35 25 l-59 0 -43 138 c-23 75 -47
143 -53 150 -7 9 -59 12 -197 12 l-188 0 -24 78 -24 77 115 5 c79 3 116 9 119
18 3 9 -26 12 -122 12 l-125 0 -42 130 c-40 126 -52 150 -63 131z"/>
<path d="M787 1258 c-66 -36 -116 -90 -149 -164 -62 -134 0 -329 131 -413 62
-40 160 -65 231 -58 177 17 322 155 332 318 4 60 -18 61 -26 2 -29 -204 -234
-336 -432 -278 -132 38 -219 148 -231 290 -10 119 65 238 182 291 55 25 71 44
38 44 -10 0 -44 -15 -76 -32z"/>
</g>
</svg>
