<?xml version="1.0" standalone="no"?>
<!DOCTYPE svg PUBLIC "-//W3C//DTD SVG 20010904//EN"
 "http://www.w3.org/TR/2001/REC-SVG-20010904/DTD/svg10.dtd">
<svg version="1.0" xmlns="http://www.w3.org/2000/svg"
 width="40.000000pt" height="40.000000pt" viewBox="0 0 40.000000 40.000000"
 preserveAspectRatio="xMidYMid meet">

<g transform="translate(0.000000,40.000000) scale(0.100000,-0.100000)"
fill="#000000" stroke="none">
<path d="M277 304 c-4 -4 -7 -22 -7 -40 0 -35 14 -43 58 -36 20 4 23 10 20 41
-3 32 -6 36 -33 39 -17 2 -34 0 -38 -4z m50 -19 c5 -15 -21 -44 -39 -45 -10 0
-10 44 -1 53 12 12 33 7 40 -8z"/>
<path d="M80 232 c-21 -24 -25 -36 -22 -85 2 -42 7 -57 17 -57 8 0 15 7 15 15
0 23 128 21 146 -2 7 -10 14 -16 17 -13 8 8 14 129 6 124 -4 -2 -14 7 -23 21
-14 22 -24 25 -74 25 -51 0 -61 -3 -82 -28z m150 -1 c19 -37 12 -41 -70 -41
-82 0 -89 4 -70 41 9 15 22 19 70 19 48 0 61 -4 70 -19z m-110 -76 c0 -9 -9
-15 -25 -15 -24 0 -32 10 -18 23 12 13 43 7 43 -8z m128 -2 c2 -8 -6 -13 -22
-13 -17 0 -26 5 -26 16 0 19 41 16 48 -3z"/>
</g>
</svg>
