<?xml version="1.0" encoding="UTF-8"?>
<svg width="50px" height="50px" viewBox="0 0 50 50" version="1.1" xmlns="http://www.w3.org/2000/svg" xmlns:xlink="http://www.w3.org/1999/xlink">
    <!-- Generator: Sketch 54 (76480) - https://sketchapp.com -->
    <title>locker-icon</title>
    <desc>Created with Sketch.</desc>
    <g id="locker-icon" stroke="none" stroke-width="1" fill="none" fill-rule="evenodd">
        <circle id="Oval" fill="#FFFFFF" fill-rule="nonzero" cx="25" cy="25" r="24.5"></circle>
        <g id="Group" transform="translate(13.000000, 11.000000)" fill="#000000" fill-rule="nonzero">
            <path d="M8.06491948,0.00110612185 C8.05503122,0.00390161948 8.04528429,0.00719350956 8.03571429,0.0109697685 L0.311688312,0.0109697685 C0.139551025,0.0109873276 1.19569759e-05,0.15334814 0,0.328961009 L0,27.6753804 C1.1956976e-05,27.8509933 0.139551025,27.9933541 0.311688312,27.9933717 L8.04545455,27.9933717 C8.08721784,28.0022094 8.13031463,28.0022094 8.17207792,27.9933717 L15.8376623,27.9933717 C15.8794256,28.0022094 15.9225224,28.0022094 15.9642857,27.9933717 L23.6883117,27.9933717 C23.860449,27.9933541 23.999988,27.8509933 24,27.6753804 L24,0.328961009 C23.999988,0.15334814 23.860449,0.0109873276 23.6883117,0.0109697685 L15.9642857,0.0109697685 C15.9294016,0.00137207294 15.8931476,-0.00196550123 15.8571429,0.00110612185 C15.8472546,0.00390161948 15.8375077,0.00719350956 15.8279377,0.0109697685 L8.17209351,0.0109697685 C8.13720943,0.00137207294 8.10095537,-0.00196550123 8.06495065,0.00110612185 L8.06491948,0.00110612185 Z M0.623361039,0.647015886 L7.79219221,0.647015886 L7.79219221,27.3574846 L0.623361039,27.3574846 L0.623361039,0.647015886 Z M8.41556883,0.647015886 L15.5844,0.647015886 L15.5844,27.3574846 L8.41556883,27.3574846 L8.41556883,0.647015886 Z M16.2077766,0.647015886 L23.3766078,0.647015886 L23.3766078,27.3574846 L16.2077766,27.3574846 L16.2077766,0.647015886 Z M2.43504935,1.91894903 C2.32316157,1.9289247 2.22508596,1.99928433 2.17803866,2.10332898 C2.13099135,2.20737363 2.14218284,2.32915741 2.20736635,2.42246777 C2.27254986,2.51577814 2.38173537,2.56631433 2.49349091,2.55489969 L5.92206234,2.55489969 C6.03456362,2.5566734 6.13927114,2.49645856 6.19602967,2.39734751 C6.25278819,2.29823645 6.25278819,2.17561227 6.19602967,2.07650121 C6.13927114,1.97739016 6.03456362,1.91717532 5.92206234,1.91894903 L2.49349091,1.91894903 C2.47405337,1.91708193 2.45448689,1.91708193 2.43504935,1.91894903 L2.43504935,1.91894903 Z M10.2272571,1.91894903 C10.1153694,1.9289247 10.0172937,1.99928433 9.97024645,2.10332898 C9.92319915,2.20737363 9.93439063,2.32915741 9.99957415,2.42246777 C10.0647577,2.51577814 10.1739432,2.56631433 10.2856987,2.55489969 L13.7142701,2.55489969 C13.8267714,2.5566734 13.9314789,2.49645856 13.9882375,2.39734751 C14.044996,2.29823645 14.044996,2.17561227 13.9882375,2.07650121 C13.9314789,1.97739016 13.8267714,1.91717532 13.7142701,1.91894903 L10.2856987,1.91894903 C10.2662612,1.91708193 10.2466947,1.91708193 10.2272571,1.91894903 L10.2272571,1.91894903 Z M18.0194649,1.91894903 C17.9075772,1.9289247 17.8095015,1.99928433 17.7624542,2.10332898 C17.7154069,2.20737363 17.7265984,2.32915741 17.7917819,2.42246777 C17.8569654,2.51577814 17.966151,2.56631433 18.0779065,2.55489969 L21.5064779,2.55489969 C21.6189792,2.5566734 21.7236867,2.49645856 21.7804453,2.39734751 C21.8372038,2.29823645 21.8372038,2.17561227 21.7804453,2.07650121 C21.7236867,1.97739016 21.6189792,1.91717532 21.5064779,1.91894903 L18.0779065,1.91894903 C18.058469,1.91708193 18.0389025,1.91708193 18.0194649,1.91894903 L18.0194649,1.91894903 Z M2.43504935,3.19088217 C2.32316157,3.20085784 2.22508596,3.27121747 2.17803866,3.37526212 C2.13099135,3.47930677 2.14218284,3.60109055 2.20736635,3.69440092 C2.27254986,3.78771128 2.38173537,3.83824747 2.49349091,3.82683284 L5.92206234,3.82683284 C6.03456362,3.82860655 6.13927114,3.76839171 6.19602967,3.66928065 C6.25278819,3.5701696 6.25278819,3.44754541 6.19602967,3.34843436 C6.13927114,3.2493233 6.03456362,3.18910846 5.92206234,3.19088217 L2.49349091,3.19088217 C2.47405337,3.18901508 2.45448689,3.18901508 2.43504935,3.19088217 L2.43504935,3.19088217 Z M10.2272571,3.19088217 C10.1153694,3.20085784 10.0172937,3.27121747 9.97024645,3.37526212 C9.92319915,3.47930677 9.93439063,3.60109055 9.99957415,3.69440092 C10.0647577,3.78771128 10.1739432,3.83824747 10.2856987,3.82683284 L13.7142701,3.82683284 C13.8267714,3.82860655 13.9314789,3.76839171 13.9882375,3.66928065 C14.044996,3.5701696 14.044996,3.44754541 13.9882375,3.34843436 C13.9314789,3.2493233 13.8267714,3.18910846 13.7142701,3.19088217 L10.2856987,3.19088217 C10.2662612,3.18901508 10.2466947,3.18901508 10.2272571,3.19088217 L10.2272571,3.19088217 Z M18.0194649,3.19088217 C17.9075772,3.20085784 17.8095015,3.27121747 17.7624542,3.37526212 C17.7154069,3.47930677 17.7265984,3.60109055 17.7917819,3.69440092 C17.8569654,3.78771128 17.966151,3.83824747 18.0779065,3.82683284 L21.5064779,3.82683284 C21.6189792,3.82860655 21.7236867,3.76839171 21.7804453,3.66928065 C21.8372038,3.5701696 21.8372038,3.44754541 21.7804453,3.34843436 C21.7236867,3.2493233 21.6189792,3.18910846 21.5064779,3.19088217 L18.0779065,3.19088217 C18.058469,3.18901508 18.0389025,3.18901508 18.0194649,3.19088217 L18.0194649,3.19088217 Z M2.43504935,4.4627835 C2.26290339,4.47924753 2.13643411,4.6349638 2.1525723,4.81058551 C2.16871049,4.98620722 2.32134495,5.11523001 2.49349091,5.09876598 L5.92206234,5.09876598 C6.03429614,5.10011469 6.13857481,5.0398026 6.19507682,4.94086147 C6.25157882,4.84192033 6.25157882,4.71962915 6.19507682,4.62068801 C6.13857481,4.52174688 6.03429614,4.46143479 5.92206234,4.4627835 L2.49349091,4.4627835 C2.47405337,4.4609164 2.45448689,4.4609164 2.43504935,4.4627835 L2.43504935,4.4627835 Z M10.2272571,4.4627835 C10.0551112,4.47924753 9.9286419,4.6349638 9.94478009,4.81058551 C9.96091828,4.98620722 10.1135527,5.11523001 10.2856987,5.09876598 L13.7142701,5.09876598 C13.8265039,5.10011469 13.9307826,5.0398026 13.9872846,4.94086147 C14.0437866,4.84192033 14.0437866,4.71962915 13.9872846,4.62068801 C13.9307826,4.52174688 13.8265039,4.46143479 13.7142701,4.4627835 L10.2856987,4.4627835 C10.2662612,4.4609164 10.2466947,4.4609164 10.2272571,4.4627835 L10.2272571,4.4627835 Z M18.0194649,4.4627835 C17.847319,4.47924753 17.7208497,4.6349638 17.7369879,4.81058551 C17.7531261,4.98620722 17.9057605,5.11523001 18.0779065,5.09876598 L21.5064779,5.09876598 C21.6187117,5.10011469 21.7229904,5.0398026 21.7794924,4.94086147 C21.8359944,4.84192033 21.8359944,4.71962915 21.7794924,4.62068801 C21.7229904,4.52174688 21.6187117,4.46143479 21.5064779,4.4627835 L18.0779065,4.4627835 C18.058469,4.4609164 18.0389025,4.4609164 18.0194649,4.4627835 L18.0194649,4.4627835 Z M2.1818026,13.3662837 C1.83752104,13.3662837 1.55842597,13.6510249 1.55842597,14.0022343 C1.55842597,14.3534756 1.83752104,14.6382168 2.1818026,14.6382168 C2.52608416,14.6382168 2.80517922,14.3534756 2.80517922,14.0022343 C2.80517922,13.6510249 2.52608416,13.3662837 2.1818026,13.3662837 Z M9.97401039,13.3662837 C9.62972883,13.3662837 9.35063377,13.6510249 9.35063377,14.0022343 C9.35063377,14.3534756 9.62972883,14.6382168 9.97401039,14.6382168 C10.3182919,14.6382168 10.597387,14.3534756 10.597387,14.0022343 C10.597387,13.6510249 10.3182919,13.3662837 9.97401039,13.3662837 Z M17.7662182,13.3662837 C17.4219366,13.3662837 17.1428416,13.6510249 17.1428416,14.0022343 C17.1428416,14.3534756 17.4219366,14.6382168 17.7662182,14.6382168 C18.1104997,14.6382168 18.3895948,14.3534756 18.3895948,14.0022343 C18.3895948,13.6510249 18.1104997,13.3662837 17.7662182,13.3662837 Z M2.43504935,22.9057345 C2.26376735,22.9232123 2.13845018,23.0784906 2.15451785,23.253336 C2.17058552,23.4281815 2.32200931,23.556991 2.49349091,23.5416852 L5.92206234,23.5416852 C6.03456362,23.5434589 6.13927114,23.4832441 6.19602967,23.384133 C6.25278819,23.285022 6.25278819,23.1623978 6.19602967,23.0632867 C6.13927114,22.9641757 6.03456362,22.9039608 5.92206234,22.9057345 L2.49349091,22.9057345 C2.47405337,22.9038674 2.45448689,22.9038674 2.43504935,22.9057345 L2.43504935,22.9057345 Z M10.2272571,22.9057345 C10.0559751,22.9232123 9.93065798,23.0784906 9.94672564,23.253336 C9.96279331,23.4281815 10.1142171,23.556991 10.2856987,23.5416852 L13.7142701,23.5416852 C13.8267714,23.5434589 13.9314789,23.4832441 13.9882375,23.384133 C14.044996,23.285022 14.044996,23.1623978 13.9882375,23.0632867 C13.9314789,22.9641757 13.8267714,22.9039608 13.7142701,22.9057345 L10.2856987,22.9057345 C10.2662612,22.9038674 10.2466947,22.9038674 10.2272571,22.9057345 L10.2272571,22.9057345 Z M18.0194649,22.9057345 C17.8481829,22.9232123 17.7228658,23.0784906 17.7389334,23.253336 C17.7550011,23.4281815 17.9064249,23.556991 18.0779065,23.5416852 L21.5064779,23.5416852 C21.6189792,23.5434589 21.7236867,23.4832441 21.7804453,23.384133 C21.8372038,23.285022 21.8372038,23.1623978 21.7804453,23.0632867 C21.7236867,22.9641757 21.6189792,22.9039608 21.5064779,22.9057345 L18.0779065,22.9057345 C18.058469,22.9038674 18.0389025,22.9038674 18.0194649,22.9057345 L18.0194649,22.9057345 Z M2.43504935,24.1776677 C2.32316967,24.1876536 2.22510546,24.2580146 2.17806442,24.3620541 C2.13102338,24.4660936 2.14221406,24.5878687 2.20739049,24.6811752 C2.27256691,24.7744817 2.38174146,24.8250214 2.49349091,24.8136183 L5.92206234,24.8136183 C6.03456362,24.8153921 6.13927114,24.7551772 6.19602967,24.6560662 C6.25278819,24.5569551 6.25278819,24.4343309 6.19602967,24.3352199 C6.13927114,24.2361088 6.03456362,24.175894 5.92206234,24.1776677 L2.49349091,24.1776677 C2.47405337,24.1758006 2.45448689,24.1758006 2.43504935,24.1776677 L2.43504935,24.1776677 Z M10.2272571,24.1776677 C10.1153775,24.1876536 10.0173133,24.2580146 9.97027221,24.3620541 C9.92323117,24.4660936 9.93442186,24.5878687 9.99959828,24.6811752 C10.0647747,24.7744817 10.1739492,24.8250214 10.2856987,24.8136183 L13.7142701,24.8136183 C13.8267714,24.8153921 13.9314789,24.7551772 13.9882375,24.6560662 C14.044996,24.5569551 14.044996,24.4343309 13.9882375,24.3352199 C13.9314789,24.2361088 13.8267714,24.175894 13.7142701,24.1776677 L10.2856987,24.1776677 C10.2662612,24.1758006 10.2466947,24.1758006 10.2272571,24.1776677 L10.2272571,24.1776677 Z M18.0194649,24.1776677 C17.9075853,24.1876536 17.809521,24.2580146 17.76248,24.3620541 C17.715439,24.4660936 17.7266296,24.5878687 17.7918061,24.6811752 C17.8569825,24.7744817 17.966157,24.8250214 18.0779065,24.8136183 L21.5064779,24.8136183 C21.6189792,24.8153921 21.7236867,24.7551772 21.7804453,24.6560662 C21.8372038,24.5569551 21.8372038,24.4343309 21.7804453,24.3352199 C21.7236867,24.2361088 21.6189792,24.175894 21.5064779,24.1776677 L18.0779065,24.1776677 C18.058469,24.1758006 18.0389025,24.1758006 18.0194649,24.1776677 L18.0194649,24.1776677 Z M2.43504935,25.449569 C2.26290339,25.466033 2.13643411,25.6217493 2.1525723,25.797371 C2.16871049,25.9729927 2.32134495,26.1020155 2.49349091,26.0855515 L5.92206234,26.0855515 C6.03429614,26.0869002 6.13857481,26.0265881 6.19507682,25.927647 C6.25157882,25.8287058 6.25157882,25.7064147 6.19507682,25.6074735 C6.13857481,25.5085324 6.03429614,25.4482203 5.92206234,25.449569 L2.49349091,25.449569 C2.47405337,25.4477019 2.45448689,25.4477019 2.43504935,25.449569 L2.43504935,25.449569 Z M10.2272571,25.449569 C10.0551112,25.466033 9.9286419,25.6217493 9.94478009,25.797371 C9.96091828,25.9729927 10.1135527,26.1020155 10.2856987,26.0855515 L13.7142701,26.0855515 C13.8265039,26.0869002 13.9307826,26.0265881 13.9872846,25.927647 C14.0437866,25.8287058 14.0437866,25.7064147 13.9872846,25.6074735 C13.9307826,25.5085324 13.8265039,25.4482203 13.7142701,25.449569 L10.2856987,25.449569 C10.2662612,25.4477019 10.2466947,25.4477019 10.2272571,25.449569 L10.2272571,25.449569 Z M18.0194649,25.449569 C17.847319,25.466033 17.7208497,25.6217493 17.7369879,25.797371 C17.7531261,25.9729927 17.9057605,26.1020155 18.0779065,26.0855515 L21.5064779,26.0855515 C21.6187117,26.0869002 21.7229904,26.0265881 21.7794924,25.927647 C21.8359944,25.8287058 21.8359944,25.7064147 21.7794924,25.6074735 C21.7229904,25.5085324 21.6187117,25.4482203 21.5064779,25.449569 L18.0779065,25.449569 C18.058469,25.4477019 18.0389025,25.4477019 18.0194649,25.449569 L18.0194649,25.449569 Z" id="Shape"></path>
        </g>
    </g>
</svg>