<?xml version="1.0" standalone="no"?>
<!DOCTYPE svg PUBLIC "-//W3C//DTD SVG 20010904//EN"
 "http://www.w3.org/TR/2001/REC-SVG-20010904/DTD/svg10.dtd">
<svg version="1.0" xmlns="http://www.w3.org/2000/svg"
 width="40.000000pt" height="40.000000pt" viewBox="0 0 40.000000 40.000000"
 preserveAspectRatio="xMidYMid meet">

<g transform="translate(0.000000,40.000000) scale(0.100000,-0.100000)"
fill="#000000" stroke="none">
<path d="M167 343 c-12 -12 -7 -49 9 -69 15 -18 15 -17 8 11 -4 17 -6 38 -6
48 1 19 -1 20 -11 10z"/>
<path d="M63 189 c3 -23 15 -52 28 -65 20 -21 31 -24 93 -23 58 0 80 5 121 28
59 33 72 66 31 77 -14 3 -26 10 -26 15 0 5 -57 9 -126 9 l-127 0 6 -41z m282
-14 c0 -13 -8 -21 -21 -23 -18 -3 -21 1 -16 23 5 31 37 31 37 0z"/>
<path d="M168 73 c18 -2 45 -2 60 0 15 2 0 4 -33 4 -33 0 -45 -2 -27 -4z"/>
</g>
</svg>
