<?xml version="1.0" encoding="iso-8859-1"?>
<!-- Generator: Adobe Illustrator 19.0.0, SVG Export Plug-In . SVG Version: 6.00 Build 0)  -->
<svg version="1.1" id="Layer_1" xmlns="http://www.w3.org/2000/svg" xmlns:xlink="http://www.w3.org/1999/xlink" x="0px" y="0px"
	 viewBox="0 0 461.173 461.173" style="enable-background:new 0 0 461.173 461.173;" xml:space="preserve">
<g>
	<g>
		<g>
			<path d="M199.177,284.502c5.276-8.499,12.431-16.011,21.484-21.907c-1.518-2.205-2.612-4.708-3.164-7.383l-12.101-59.167
				l26.176,52.095c2.273,4.524,6.66,7.61,11.686,8.221l59.965,7.286c8.289,1.006,15.825-4.895,16.833-13.186
				c1.007-8.289-4.896-15.826-13.186-16.833l-51.918-6.308l-22.537-44.852l17.329,19.384l2.66-9.284
				c3.429-11.969-3.494-24.451-15.463-27.88l-36.876-10.565c-12.625-3.617-25.681,4.296-28.3,17.18
				c-24.04,118.252-22.612,110.378-22.612,113.199H199.177z"/>
			<circle cx="236.485" cy="112.261" r="33.371"/>
			<path d="M301.324,279.283c-7.19-0.874-56.242-6.833-62.225-7.561c-11.444,4.593-21.079,13.021-27.121,23.947
				c131.057,11.545,122.354,10.415,125.87,11.934H187.585c-8.35,0-15.119,6.769-15.119,15.119s6.769,15.119,15.119,15.119
				c164.747,0,161.159-0.109,161.159-0.109c10.519,0,19.078-8.505,19.132-19.034l0.111-21.598
				c0.081-15.858-12.724-28.762-28.549-28.843l-10.519-0.054C322.443,276.09,312.204,280.605,301.324,279.283z"/>
			<path d="M414.758,321.053c0.068,0,0.135,0.001,0.202,0.001c17.567,0,31.863-14.186,31.972-31.778
				c0.109-17.66-14.118-32.064-31.778-32.174c-0.068,0-0.135-0.001-0.202-0.001c-17.567,0.001-31.862,14.186-31.971,31.778
				C382.871,306.539,397.098,320.944,414.758,321.053z"/>
			<path d="M29.893,337.478c4.434,0,124.984,0,129.787,0c-2.109-3.615-3.477-7.738-3.869-12.183
				c-0.829-9.404,2.885-18.157,9.319-24.106c-10.076,0-130.567,0-135.237,0c-10.021,0-18.144,8.123-18.144,18.144
				C11.749,329.354,19.872,337.478,29.893,337.478z"/>
			<path d="M445.464,350.864c-4.729,0-425.67,0-429.755,0C7.033,350.864,0,357.897,0,366.574c0,8.676,7.033,15.709,15.709,15.709
				h429.755c8.676,0,15.709-7.033,15.709-15.709C461.173,357.897,454.14,350.864,445.464,350.864z"/>
		</g>
	</g>
</g>
<g>
</g>
<g>
</g>
<g>
</g>
<g>
</g>
<g>
</g>
<g>
</g>
<g>
</g>
<g>
</g>
<g>
</g>
<g>
</g>
<g>
</g>
<g>
</g>
<g>
</g>
<g>
</g>
<g>
</g>
</svg>
