<svg xmlns="http://www.w3.org/2000/svg" width="50" height="50" style="background:#f2f2f2" viewBox="0 0 50 50">
  <g fill="none" fill-rule="evenodd">
    <circle cx="25" cy="25" r="24.5" fill="#FFF"/>
    <path fill="#000" fill-rule="nonzero" d="M35.7613594,21.351292 C34.3418905,19.1497355 31.5889402,17.5980355 29.1000344,17.5980355 C27.9452682,17.5980355 26.8289891,17.8975125 25.8078095,18.4278853 C25.4218171,16.8784009 24.3544585,15.0639686 22.4477724,13.1129495 C22.2943969,12.9590261 22.0667128,12.9590261 21.9133373,13.1129495 C21.7599617,13.2668728 21.7599617,13.4953701 21.9133373,13.6492935 C23.5839405,15.3258636 24.5613782,16.8953497 24.925045,18.3735035 C23.9836664,17.8786391 22.9099832,17.5980355 21.8778276,17.5980355 C19.3457876,17.5980355 16.5930428,19.1496197 15.2171668,21.350254 C13.9116891,23.4464789 13.6368164,26.2165166 14.4873027,28.9904719 C15.197056,31.2608912 16.689377,33.7529828 18.410821,35.4805816 C19.9952074,37.1136011 21.6271308,37.9826125 23.0887365,37.9826125 C23.4356179,37.9826125 23.7760155,37.9385334 24.0701984,37.8541847 C24.4958106,37.7376941 24.9485468,37.4735352 25.5009018,37.0841244 C25.9464063,37.4865105 26.3721659,37.7306707 26.865972,37.8546375 C28.5326641,38.3692975 30.591156,37.5066373 32.610758,35.4367021 C34.3706546,33.6705196 35.8845116,31.1625282 36.5335801,28.9478136 C37.35893,26.1577578 37.0812658,23.359588 35.7613594,21.351292 Z M35.7647483,28.7166873 C35.108456,30.8243242 33.6696455,33.2147279 32.0335013,34.8999262 C30.2582878,36.7249328 28.4664837,37.5254236 27.054224,37.1268052 C26.5818638,36.9975196 26.1403649,36.6984434 25.7345252,36.2457957 C25.6648175,36.175839 25.5515076,36.1303532 25.4673076,36.1303532 C25.3437311,36.1303532 25.2396761,36.1721238 25.2019073,36.2438734 C24.7942503,36.6984434 24.3527515,36.9975196 23.8811793,37.1265826 C22.5021005,37.5283903 20.6643782,36.7126484 18.901081,34.8998923 C17.1975409,33.1452775 15.7596426,30.7883219 15.169796,28.7164558 C14.394066,26.1647035 14.6376682,23.6268477 15.8240489,21.7306784 C17.0875441,19.7193552 19.5687583,18.3218633 21.8778276,18.3218633 C23.1313677,18.3218633 24.3125916,18.7094119 25.2580454,19.4572912 C25.2580454,19.7393991 25.2580454,19.7393991 25.2570702,19.8143847 C25.2206599,19.9970861 25.3671071,20.1930464 25.5538011,20.2315166 C25.781296,20.2315166 25.9399701,20.0836501 25.9792971,19.8913033 C25.9792971,19.8793113 25.9820464,19.8535598 25.9891137,19.785471 C26.0032375,19.6295545 26.0032375,19.4593097 26.002147,19.1980296 C26.9029919,18.610389 27.9978738,18.2784621 29.1000344,18.2784621 C31.3657331,18.2784621 33.8466458,19.6757841 35.1541344,21.6877955 C36.3273609,23.6065491 36.5489034,26.1809404 35.7647483,28.7166873 Z M27.7593852,16.8028209 C28.0728093,16.8028209 28.3223492,16.754661 28.6058216,16.6327599 C29.4244208,16.3072508 30.1550253,15.749595 30.7975717,15.0246491 C31.1620896,14.6133858 31.4764646,14.1729494 31.7417375,13.7295161 C31.9032167,13.4595856 31.8786904,13.5070302 32.0823901,13.0981757 C32.1190221,13.0246501 32.1190221,12.9079331 32.0796655,12.7894416 C32.0439824,12.6820101 31.972876,12.6004553 31.8951925,12.5609086 C31.9085778,12.5653863 31.7335841,12.5010311 31.6276409,12.4649517 C31.4410288,12.4014004 31.2382653,12.3397358 31.0170796,12.2819003 C29.8788042,11.9842645 28.7108194,11.8965995 27.6190711,12.1442592 C27.3911966,12.1959518 27.1697874,12.2620636 26.9560594,12.3429988 C25.7762875,12.8081361 25.2193377,14.1209929 25.6881489,15.3188953 C25.9717307,16.2133358 26.8283369,16.8028209 27.7593852,16.8028209 Z M31.1764005,13.2322246 C30.5290203,14.3872335 29.5223753,15.477834 28.3392257,15.9455805 C27.9818831,16.0800626 27.5368873,16.0800626 27.1747192,15.9434688 C26.7744955,15.7426422 26.4947008,15.4618481 26.3719324,15.0920352 C26.0577742,14.2813144 26.4214047,13.4297468 27.2221204,13.1171846 C28.4159783,12.6452373 29.9268603,12.7510354 31.1764005,13.2322246 Z"/>
  </g>
</svg>
