<?xml version="1.0" standalone="no"?>
<!DOCTYPE svg PUBLIC "-//W3C//DTD SVG 20010904//EN"
 "http://www.w3.org/TR/2001/REC-SVG-20010904/DTD/svg10.dtd">
<svg version="1.0" xmlns="http://www.w3.org/2000/svg"
 width="512.000000pt" height="512.000000pt" viewBox="0 0 512.000000 512.000000"
 preserveAspectRatio="xMidYMid meet">

<g transform="translate(0.000000,512.000000) scale(0.100000,-0.100000)"
fill="#000000" stroke="none">
<path d="M2404 5105 c-38 -7 -97 -20 -129 -30 -285 -82 -533 -316 -641 -603
-59 -157 -66 -235 -61 -634 4 -319 6 -361 25 -435 54 -206 169 -394 317 -515
l65 -53 0 -260 0 -260 -478 -99 c-262 -54 -513 -110 -557 -123 -321 -101 -587
-362 -690 -680 -22 -67 -255 -1289 -255 -1337 0 -10 13 -31 29 -47 l29 -29
2497 0 c1879 0 2502 3 2518 12 30 16 46 39 47 66 0 20 -194 1084 -221 1207
-75 350 -315 637 -644 771 -87 36 -180 58 -792 190 l-323 69 0 260 0 260 64
52 c104 84 203 218 264 359 72 165 82 243 82 642 0 293 -2 346 -20 430 -85
419 -413 728 -837 791 -92 14 -199 13 -289 -4z m411 -193 c219 -74 381 -215
483 -417 24 -48 72 -182 72 -201 0 -8 -1609 -4 -1613 4 -7 11 36 139 68 202
114 225 326 387 576 440 24 5 107 8 184 6 126 -3 149 -6 230 -34z m415 -907
l-125 -125 -545 0 -545 0 -125 125 -125 125 795 0 795 0 -125 -125z m-670
-285 l613 0 102 100 c55 55 105 100 110 100 4 0 5 -91 2 -202 -7 -234 -22
-312 -87 -445 -133 -270 -397 -446 -690 -460 -58 -3 -137 0 -177 6 -268 42
-511 228 -624 477 -55 121 -69 207 -69 428 l0 200 104 -102 103 -102 613 0z
m-338 -1014 c225 -85 491 -78 731 19 16 7 17 -10 17 -273 l0 -280 -62 -55
c-114 -99 -220 -140 -355 -140 -138 1 -243 45 -350 146 l-53 50 0 278 c0 154
2 279 4 279 2 0 33 -11 68 -24z m-179 -656 c171 -177 322 -239 558 -228 190 9
316 68 478 224 l97 92 67 -16 67 -16 0 -133 0 -134 -215 -285 c-119 -156 -219
-284 -222 -284 -3 0 -24 16 -46 36 -80 73 -187 106 -304 93 -87 -9 -152 -36
-215 -90 -26 -21 -49 -39 -52 -39 -3 0 -102 128 -221 284 l-215 285 0 134 0
134 63 15 c34 9 64 16 67 17 4 0 45 -40 93 -89z m-393 -106 c0 -81 5 -144 11
-157 6 -12 120 -167 253 -345 l241 -322 0 -113 c0 -141 21 -200 102 -287 51
-56 171 -130 209 -130 11 0 14 -23 14 -104 0 -158 -11 -151 245 -151 l207 0
20 24 c18 24 19 40 17 393 l-2 368 249 331 249 332 3 144 c2 79 5 143 8 143 8
0 522 -112 599 -130 103 -25 264 -106 346 -174 134 -110 243 -265 293 -416 14
-41 54 -239 90 -440 36 -201 69 -377 72 -393 l6 -27 -501 0 -501 0 0 370 0
370 -80 0 -80 0 0 -535 0 -535 -1160 0 -1160 0 0 540 0 540 -80 0 -80 0 0
-370 0 -370 -500 0 -500 0 5 22 c3 13 34 187 70 388 67 371 86 451 135 551
100 204 279 371 483 450 63 24 641 162 705 168 9 1 12 -32 12 -135z m989 -720
c37 -10 66 -29 96 -59 69 -68 75 -102 75 -407 l0 -258 -85 0 -85 0 0 98 c0 89
-2 100 -22 119 -14 13 -44 24 -73 28 -144 20 -229 114 -228 251 1 73 22 124
76 176 64 62 151 81 246 52z m-1399 -974 l0 -80 -528 0 -529 0 16 80 15 80
513 0 513 0 0 -80z m3681 0 l16 -80 -529 0 -528 0 0 80 0 80 513 0 513 0 15
-80z"/>
<path d="M2480 990 l0 -80 80 0 80 0 0 80 0 80 -80 0 -80 0 0 -80z"/>
</g>
</svg>
