<?xml version="1.0" standalone="no"?>
<!DOCTYPE svg PUBLIC "-//W3C//DTD SVG 20010904//EN"
 "http://www.w3.org/TR/2001/REC-SVG-20010904/DTD/svg10.dtd">
<svg version="1.0" xmlns="http://www.w3.org/2000/svg"
 width="512.000000pt" height="512.000000pt" viewBox="0 0 512.000000 512.000000"
 preserveAspectRatio="xMidYMid meet">

<g transform="translate(0.000000,512.000000) scale(0.100000,-0.100000)"
fill="#000000" stroke="none">
<path d="M1435 5110 c-234 -47 -427 -228 -485 -455 -19 -76 -20 -111 -20
-1207 l0 -1129 -52 -24 c-102 -48 -177 -32 -348 73 -36 22 -66 40 -66 39 -1
-1 -36 -58 -78 -127 -87 -145 -94 -120 58 -208 151 -87 182 -96 326 -96 151 0
185 11 357 111 153 89 176 98 250 97 66 -2 68 -3 268 -118 140 -81 173 -90
315 -90 151 0 185 11 357 111 153 89 176 98 250 97 66 -2 68 -3 268 -118 140
-81 173 -90 315 -90 151 0 185 11 357 111 153 89 176 98 250 97 66 -2 68 -3
268 -118 140 -81 173 -90 315 -90 151 0 188 12 356 110 106 62 113 68 102 88
-6 11 -40 69 -75 129 l-64 107 -31 -16 c-17 -9 -59 -33 -92 -53 -86 -52 -138
-71 -199 -71 -59 0 -103 18 -223 91 -118 71 -198 105 -282 119 -142 23 -260
-6 -433 -108 -144 -85 -186 -102 -253 -102 -57 0 -91 14 -268 115 l-88 50 3
1075 2 1075 25 49 c59 116 163 181 290 181 129 0 234 -67 289 -184 25 -54 26
-64 29 -263 l3 -208 150 0 149 0 0 203 c0 234 -11 302 -67 416 -50 102 -169
222 -267 269 -90 44 -203 72 -286 72 -83 0 -201 -29 -288 -72 -96 -47 -215
-168 -265 -269 -66 -135 -67 -142 -67 -841 l0 -628 -630 0 -630 0 2 638 3 637
24 49 c98 198 361 244 515 90 21 -22 51 -64 65 -94 25 -53 26 -63 29 -262 l3
-208 150 0 149 0 0 203 c0 170 -3 217 -20 281 -45 179 -163 327 -321 405 -127
63 -273 85 -394 61z m1053 -2367 l2 -263 -22 0 c-45 -1 -157 -48 -264 -112
-137 -80 -181 -98 -247 -98 -58 0 -110 21 -219 88 -93 57 -174 96 -233 113
-54 15 -203 19 -247 6 l-28 -7 0 270 0 270 628 -2 627 -3 3 -262z"/>
<path d="M1290 1480 c-81 -13 -151 -41 -280 -116 -150 -86 -171 -94 -241 -94
-68 0 -83 6 -207 78 -64 38 -96 52 -103 45 -19 -19 -147 -238 -143 -244 8 -14
201 -123 258 -146 83 -34 242 -43 336 -19 64 17 80 24 268 131 170 96 221 94
406 -16 170 -103 219 -120 346 -126 137 -7 204 10 335 84 188 106 208 116 249
124 72 13 132 -6 268 -87 159 -95 246 -124 366 -124 118 0 188 20 307 87 220
124 222 126 289 125 73 0 105 -12 235 -92 167 -102 203 -114 361 -114 115 0
143 3 188 21 67 27 283 152 278 161 -2 4 -36 62 -75 130 -61 103 -75 121 -89
113 -9 -5 -52 -30 -95 -55 -108 -64 -141 -76 -208 -76 -67 0 -100 14 -250 103
-53 32 -120 67 -148 78 -117 44 -263 44 -383 -1 -30 -11 -105 -50 -168 -86
-150 -86 -171 -94 -241 -94 -67 0 -100 14 -250 103 -53 32 -120 67 -148 78
-117 44 -263 44 -383 -1 -30 -11 -105 -50 -168 -86 -149 -85 -171 -94 -240
-94 -70 0 -93 9 -245 99 -169 101 -288 132 -425 111z"/>
<path d="M1233 505 c-60 -17 -135 -53 -260 -127 -176 -104 -232 -103 -415 8
-50 30 -93 53 -96 50 -3 -3 -38 -61 -78 -128 l-73 -122 42 -27 c141 -87 208
-120 287 -140 154 -39 291 -13 460 87 145 86 188 105 245 111 71 7 108 -6 257
-94 195 -115 317 -143 472 -109 79 18 130 42 302 140 113 64 179 79 250 56 21
-7 96 -46 166 -87 195 -115 317 -143 472 -109 79 18 130 42 302 140 113 64
179 79 250 56 21 -7 96 -46 166 -87 167 -98 223 -117 358 -117 80 0 120 5 168
21 62 21 304 153 299 163 -16 38 -144 250 -150 250 -5 0 -52 -25 -105 -57
-187 -109 -239 -109 -425 4 -182 111 -277 140 -421 130 -103 -7 -161 -29 -317
-119 -220 -126 -261 -127 -452 -11 -182 111 -277 140 -421 130 -103 -7 -161
-29 -317 -119 -220 -126 -261 -127 -452 -11 -114 70 -196 107 -265 122 -71 15
-185 13 -249 -4z"/>
</g>
</svg>
