<?xml version="1.0" standalone="no"?>
<!DOCTYPE svg PUBLIC "-//W3C//DTD SVG 20010904//EN"
 "http://www.w3.org/TR/2001/REC-SVG-20010904/DTD/svg10.dtd">
<svg version="1.0" xmlns="http://www.w3.org/2000/svg"
 width="512.000000pt" height="512.000000pt" viewBox="0 0 512.000000 512.000000"
 preserveAspectRatio="xMidYMid meet">

<g transform="translate(0.000000,512.000000) scale(0.100000,-0.100000)"
fill="#000000" stroke="none">
<path d="M210 4200 c-20 -20 -20 -33 -20 -1640 0 -1607 0 -1620 20 -1640 20
-20 33 -20 2350 -20 2317 0 2330 0 2350 20 20 20 20 33 20 1640 0 1607 0 1620
-20 1640 -20 20 -33 20 -2350 20 -2317 0 -2330 0 -2350 -20z m2280 -610 l0
-490 -23 0 c-34 0 -133 -36 -186 -67 -107 -63 -201 -178 -243 -301 -32 -95
-32 -249 0 -344 62 -179 220 -324 393 -360 l59 -12 0 -488 0 -488 -1080 0
-1080 0 0 264 0 263 153 6 c182 6 280 28 413 91 120 57 171 93 268 185 98 95
154 173 211 293 68 144 89 243 89 418 0 175 -21 274 -89 418 -57 120 -113 198
-211 293 -97 92 -148 128 -268 185 -133 63 -231 85 -413 91 l-153 6 0 263 0
264 1080 0 1080 0 0 -490z m2300 226 l0 -263 -152 -6 c-183 -6 -281 -28 -416
-92 -120 -57 -198 -113 -293 -211 -92 -97 -128 -148 -185 -268 -67 -142 -88
-242 -88 -416 0 -175 21 -274 89 -418 57 -120 113 -198 211 -293 97 -92 148
-128 268 -185 133 -63 231 -85 414 -91 l152 -6 0 -263 0 -264 -1080 0 -1080 0
0 488 0 488 59 12 c173 36 331 181 393 360 32 95 32 249 0 344 -42 123 -136
238 -243 301 -53 31 -152 67 -186 67 l-23 0 0 490 0 490 1080 0 1080 0 0 -264z
m-4077 -440 c288 -86 495 -292 584 -583 23 -78 26 -104 26 -233 0 -129 -3
-155 -26 -233 -89 -291 -296 -497 -584 -583 -71 -21 -116 -27 -235 -31 l-148
-6 0 271 0 270 198 4 c176 3 202 5 243 24 67 31 124 87 156 152 23 47 28 70
27 132 0 125 -61 222 -172 277 -56 27 -62 28 -254 31 l-198 4 0 270 0 271 148
-6 c119 -4 164 -10 235 -31z m4077 -235 l0 -269 -197 -4 c-193 -3 -199 -4
-255 -31 -111 -55 -172 -152 -172 -277 -1 -62 4 -85 27 -132 32 -65 89 -121
156 -152 41 -19 67 -21 244 -24 l197 -4 0 -270 0 -271 -147 6 c-120 4 -165 10
-236 31 -278 83 -488 285 -575 556 -157 485 150 1000 653 1095 39 7 123 14
188 14 l117 1 0 -269z m-2300 -582 l0 -401 -30 6 c-57 11 -138 58 -188 110
-209 213 -137 548 143 668 81 35 75 67 75 -383z m253 365 c198 -98 281 -347
182 -545 -49 -100 -168 -196 -265 -215 l-30 -6 0 402 0 403 31 -7 c17 -3 54
-17 82 -32z m-2030 -208 c42 -17 83 -66 98 -116 15 -49 1 -104 -38 -151 -45
-53 -73 -59 -268 -59 l-175 0 0 170 0 170 175 0 c126 0 185 -4 208 -14z m4077
-156 l0 -170 -175 0 c-195 0 -223 6 -268 59 -58 69 -58 153 0 222 45 53 70 58
266 59 l177 0 0 -170z"/>
</g>
</svg>
