<?xml version="1.0" encoding="iso-8859-1"?>
<!-- Generator: Adobe Illustrator 18.0.0, SVG Export Plug-In . SVG Version: 6.00 Build 0)  -->
<!DOCTYPE svg PUBLIC "-//W3C//DTD SVG 1.1//EN" "http://www.w3.org/Graphics/SVG/1.1/DTD/svg11.dtd">
<svg version="1.1" id="Capa_1" xmlns="http://www.w3.org/2000/svg" xmlns:xlink="http://www.w3.org/1999/xlink" x="0px" y="0px"
	 viewBox="0 0 460.552 460.552" style="enable-background:new 0 0 460.552 460.552;" xml:space="preserve">
<g id="XMLID_1052_">
	<circle id="XMLID_1053_" cx="165.878" cy="37.906" r="37.906"/>
	<path id="XMLID_1070_" d="M363.011,107.406c-1.546-4.751-6.652-7.351-11.403-5.803l-37.119,12.082
		c-7.17-5.357-17.363-4.79-23.868,1.732l-31.077,31.157l-2.221-16.916c-0.81-23.145-19.948-41.763-43.257-41.763
		c-12.033,0-85.696,0-97.38,0c-23.747,0-43.163,19.319-43.282,43.066L72.729,265.33c-0.051,10.101,8.097,18.331,18.197,18.381
		c0.031,0,0.063,0,0.094,0c10.058,0,18.237-8.129,18.288-18.198l0.675-134.369c0-0.001,0-0.001,0-0.002
		c0.011-2,1.638-3.615,3.639-3.609c2,0.006,3.618,1.629,3.618,3.629l0.009,307.442c0,12.122,9.827,21.948,21.948,21.948
		s21.948-9.827,21.948-21.948V267.91c0-2.617,2.121-4.738,4.738-4.738s4.738,2.121,4.738,4.738v170.694
		c0,12.122,9.827,21.948,21.948,21.948c12.121,0,21.948-9.827,21.948-21.948l-0.389-307.437c-0.002-1.831,1.478-3.319,3.31-3.325
		c1.831-0.006,3.323,1.471,3.332,3.304c0-0.001,0,0,0,0c0.008,1.645-0.426-2.139,7.343,57.039
		c0.907,6.91,5.663,12.704,12.263,14.941c6.606,2.238,13.902,0.525,18.821-4.406l57.324-57.471
		c3.046-3.054,4.777-6.916,5.217-10.893l35.471-11.546C361.959,117.263,364.558,112.157,363.011,107.406z"/>
	<path id="XMLID_1075_" d="M387.302,29.68c-2.94-10.61-5.845-15.312-4.512-23.32c0.087-0.523-0.108-1.053-0.471-1.283
		c-0.363-0.23-0.8-0.1-1.056,0.316c-2.478,4.02-5.669,11.143-4.77,20.227c1.023,10.338,3.347,15.658,2.365,22.343
		c-0.14,0.952,0.214,1.906,0.867,2.336c0.653,0.43,1.445,0.232,1.94-0.485C385.404,44.404,389.245,36.695,387.302,29.68z"/>
	<path id="XMLID_1076_" d="M361.011,45.418c0.087-0.522-0.108-1.053-0.471-1.283c-0.363-0.23-0.8-0.1-1.056,0.315
		c-2.478,4.02-5.668,11.143-4.77,20.227c1.022,10.338,3.347,15.658,2.365,22.343c-0.14,0.952,0.214,1.906,0.867,2.336
		c0.653,0.43,1.445,0.232,1.94-0.485c3.74-5.409,7.58-13.118,5.637-20.133C362.583,58.128,359.679,53.426,361.011,45.418z"/>
</g>
<g>
</g>
<g>
</g>
<g>
</g>
<g>
</g>
<g>
</g>
<g>
</g>
<g>
</g>
<g>
</g>
<g>
</g>
<g>
</g>
<g>
</g>
<g>
</g>
<g>
</g>
<g>
</g>
<g>
</g>
</svg>
