<svg xmlns="http://www.w3.org/2000/svg" width="50" height="50" style="background:#f2f2f2" viewBox="0 0 50 50">
  <g fill="none" fill-rule="evenodd">
    <circle cx="25" cy="25" r="24.5" fill="#FFF"/>
    <path fill="#000" fill-rule="nonzero" d="M38.6768515,27.8073218 L27.3577772,22.7302505 C27.1893385,22.6647399 26.9872122,22.7302505 26.9198368,22.894027 C26.8524613,23.0578035 26.9198368,23.2543353 27.0882754,23.3198459 L38.4073497,28.4296724 C38.7779147,28.5934489 39.0811042,28.9210019 39.215855,29.2813102 C39.3506059,29.6416185 39.3506059,30.1001927 39.1821673,30.460501 C38.9126655,31.017341 38.373662,31.344894 37.7335953,31.344894 C37.7335953,31.344894 37.6999076,31.344894 37.6999076,31.344894 L11.2887341,31.344894 C11.2887341,31.344894 11.2550464,31.344894 11.2550464,31.344894 C10.6486674,31.344894 10.0759762,30.9845857 9.80647438,30.460501 C9.63803578,30.1001927 9.60434805,29.6743738 9.77278666,29.2813102 C9.94122527,28.8882466 10.210727,28.5934489 10.581292,28.4296724 L23.146812,22.7630058 C23.146812,22.7630058 23.146812,22.7630058 23.146812,22.7630058 L25.7744543,21.583815 C25.7744543,21.583815 25.7744543,21.583815 25.7744543,21.583815 C27.5599035,20.7649326 28.3347211,18.734104 27.492528,16.9980732 C26.9198368,15.8188825 25.7070788,15.0327553 24.3932577,15 C24.3932577,15 24.3932577,15 24.3932577,15 C24.35957,15 24.3258822,15 24.2921945,15 C22.910998,15 21.6645523,15.7861272 21.091861,16.9980732 C21.0244856,17.1618497 21.091861,17.3583815 21.2602996,17.4238921 C21.2939873,17.4566474 21.3613628,17.4566474 21.3950505,17.4566474 C21.5298014,17.4566474 21.6308645,17.3911368 21.69824,17.2601156 C22.1698681,16.2774566 23.1804997,15.655106 24.2585068,15.6223507 C24.2585068,15.6223507 24.2585068,15.6223507 24.2585068,15.6223507 C25.3702016,15.6223507 26.414521,16.2774566 26.8861491,17.2601156 C27.5599035,18.6685934 26.9198368,20.3391137 25.4712648,20.9942197 C25.4712648,20.9942197 25.4712648,20.9942197 25.4712648,20.9942197 L18.2284047,24.2697495 C18.2284047,24.2697495 18.2284047,24.2697495 18.2284047,24.2697495 L10.3117902,27.8073218 C9.77278666,28.0693642 9.33484628,28.495183 9.13271996,29.0520231 C8.93059363,29.6088632 8.96428135,30.1984586 9.2000954,30.7225434 C9.57066033,31.4759152 10.3454779,31.9672447 11.2213587,32 C11.2213587,32 11.2550464,32 11.2550464,32 L37.7335953,32 C37.7335953,32 37.767283,32 37.767283,32 C38.6431638,32 39.4179814,31.4759152 39.7885463,30.7225434 C40.0580481,30.1984586 40.0580481,29.6088632 39.8559217,29.0520231 C39.6537954,28.495183 39.215855,28.0693642 38.6768515,27.8073218 Z"/>
  </g>
</svg>
