<?xml version="1.0" standalone="no"?>
<!DOCTYPE svg PUBLIC "-//W3C//DTD SVG 20010904//EN"
 "http://www.w3.org/TR/2001/REC-SVG-20010904/DTD/svg10.dtd">
<svg version="1.0" xmlns="http://www.w3.org/2000/svg"
 width="40.000000pt" height="40.000000pt" viewBox="0 0 40.000000 40.000000"
 preserveAspectRatio="xMidYMid meet">

<g transform="translate(0.000000,40.000000) scale(0.100000,-0.100000)"
fill="#000000" stroke="none">
<path d="M160 310 c-45 -8 -99 -37 -107 -56 -10 -26 3 -26 42 0 68 46 142 46
210 0 21 -14 40 -23 42 -20 13 13 -10 39 -49 55 -55 24 -94 30 -138 21z"/>
<path d="M128 228 c-21 -12 -38 -26 -38 -30 0 -13 25 -9 46 7 25 19 103 19
128 0 22 -16 46 -20 46 -7 0 16 -78 52 -111 52 -19 0 -51 -10 -71 -22z"/>
<path d="M150 165 c-18 -22 -7 -28 24 -14 20 10 32 10 52 0 31 -14 42 -8 24
14 -16 20 -84 20 -100 0z"/>
<path d="M187 114 c-13 -13 -7 -24 14 -24 11 0 19 5 17 12 -5 14 -22 21 -31
12z"/>
</g>
</svg>
