<?xml version="1.0" standalone="no"?>
<!DOCTYPE svg PUBLIC "-//W3C//DTD SVG 20010904//EN"
 "http://www.w3.org/TR/2001/REC-SVG-20010904/DTD/svg10.dtd">
<svg version="1.0" xmlns="http://www.w3.org/2000/svg"
 width="512.000000pt" height="512.000000pt" viewBox="0 0 512.000000 512.000000"
 preserveAspectRatio="xMidYMid meet">

<g transform="translate(0.000000,512.000000) scale(0.100000,-0.100000)"
fill="#000000" stroke="none">
<path d="M3672 5025 c-103 -23 -206 -80 -292 -162 -61 -60 -85 -76 -130 -89
-30 -8 -70 -24 -88 -35 -32 -19 -71 -19 -1478 -19 l-1444 0 0 -1040 0 -1040
389 0 389 0 -60 -240 -60 -240 -409 0 -409 0 0 -80 0 -80 2480 0 2480 0 0 203
c0 239 -11 303 -72 426 -32 66 -60 104 -118 162 -98 99 -197 149 -360 184
-188 40 -204 45 -234 73 -35 33 -43 53 -66 167 l-18 90 56 56 c31 31 70 79 87
106 l30 50 71 6 c121 9 208 65 265 169 31 58 34 70 33 148 0 73 -4 92 -28 139
l-28 53 27 94 c15 51 29 127 32 168 26 344 -223 666 -564 732 -97 18 -394 18
-481 -1z m-687 -482 c-34 -91 -30 -221 14 -394 27 -109 28 -115 11 -139 -33
-50 -45 -95 -44 -175 0 -86 22 -146 78 -212 43 -51 137 -94 219 -100 l72 -6
30 -50 c17 -27 56 -75 87 -106 l56 -56 -19 -93 c-35 -173 -49 -186 -267 -231
-161 -33 -241 -66 -329 -133 l-62 -48 -1216 0 -1215 0 0 880 0 880 1296 0
c1230 0 1296 -1 1289 -17z m683 -301 c38 -39 71 -62 98 -70 26 -7 113 -12 233
-12 l192 0 25 -25 26 -26 -4 -222 -3 -223 -37 -76 c-45 -91 -103 -147 -196
-191 -61 -29 -76 -32 -162 -32 -86 0 -101 3 -160 31 -95 46 -153 101 -197 192
l-38 76 -3 214 c-4 246 2 281 59 346 30 34 87 74 107 76 1 0 28 -26 60 -58z
m-386 -402 c3 -178 5 -176 -65 -146 -125 52 -126 238 -2 292 65 28 64 31 67
-146z m1207 132 c49 -36 66 -70 66 -132 0 -44 -5 -66 -21 -86 -30 -40 -65 -64
-104 -70 l-35 -6 3 162 3 162 32 -6 c18 -3 43 -14 56 -24z m-744 -763 c61 -12
144 -10 210 6 33 8 63 14 66 15 7 0 34 -149 28 -154 -2 -2 -50 -27 -106 -55
l-103 -51 -102 51 c-57 28 -105 53 -107 55 -2 2 2 38 9 79 13 75 13 76 39 69
14 -3 44 -10 66 -15z m-57 -344 c2 -1 -43 -39 -99 -84 l-103 -82 -33 72 c-18
39 -33 75 -33 79 0 5 24 22 54 39 30 16 57 35 61 40 4 7 34 -3 78 -25 40 -20
73 -38 75 -39z m540 11 c17 -9 32 -20 32 -25 0 -5 -15 -41 -33 -80 l-33 -72
-103 82 -103 83 73 37 74 37 30 -23 c16 -12 45 -30 63 -39z m-825 -380 c81
-178 147 -326 147 -330 0 -3 -169 -6 -375 -6 l-375 0 0 118 c0 184 36 287 136
392 59 62 127 103 213 131 109 35 88 60 254 -305z m1118 308 c86 -25 164 -72
222 -133 101 -106 137 -209 137 -393 l0 -118 -375 0 c-206 0 -375 3 -375 6 0
4 66 152 147 330 164 361 145 337 244 308z m-647 -53 c16 -18 17 -24 4 -63
-12 -34 -19 -43 -38 -43 -19 0 -26 9 -38 43 -13 39 -12 45 4 63 9 10 25 19 34
19 9 0 25 -9 34 -19z m-2516 -351 l-60 -240 -118 0 -118 0 60 240 60 240 118
0 118 0 -60 -240z m880 0 l60 -240 -418 0 -418 0 60 240 60 240 298 0 298 0
60 -240z m467 223 c-51 -121 -58 -159 -63 -310 l-4 -153 -88 0 -88 0 -60 240
-60 240 185 0 c172 0 185 -1 178 -17z m962 -36 c8 -25 6 -59 -7 -133 l-16 -99
-37 80 c-55 116 -55 115 -6 153 24 17 46 32 49 32 4 0 11 -15 17 -33z m412 1
c49 -38 49 -37 -6 -153 l-37 -80 -16 99 c-13 74 -15 108 -7 133 6 18 13 33 17
33 3 0 25 -15 49 -32z m-224 -130 c9 -42 45 -265 45 -282 0 -13 -11 -16 -60
-16 -71 0 -68 -12 -40 154 26 156 28 166 40 166 5 0 12 -10 15 -22z"/>
<path d="M560 3920 l0 -480 240 0 240 0 0 -240 0 -240 560 0 560 0 0 240 0
240 320 0 320 0 0 400 0 400 -480 0 -480 0 0 -160 0 -160 -160 0 -160 0 0 240
0 240 -480 0 -480 0 0 -480z m800 0 l0 -320 -320 0 -320 0 0 320 0 320 320 0
320 0 0 -320z m1280 -80 l0 -240 -240 0 -240 0 0 160 0 160 -80 0 -80 0 0 80
0 80 320 0 320 0 0 -240z"/>
<path d="M495 1826 c-41 -18 -83 -69 -90 -110 -4 -18 -5 -150 -3 -292 4 -248
5 -262 29 -325 34 -89 70 -147 123 -202 l44 -45 -60 -23 c-269 -100 -458 -381
-458 -680 l0 -69 2481 0 2482 0 -6 103 c-7 127 -26 199 -79 305 -74 148 -216
278 -370 339 l-68 26 48 51 c101 107 142 209 149 376 7 137 -5 204 -53 298
-40 80 -125 167 -202 206 -86 43 -153 56 -302 56 -204 0 -302 -33 -412 -138
-66 -63 -120 -159 -139 -249 -17 -86 -6 -272 21 -350 25 -73 82 -163 134 -215
l37 -36 -38 -12 c-127 -41 -291 -169 -363 -284 -19 -31 -37 -56 -40 -56 -3 0
-18 21 -34 46 -73 116 -210 230 -334 279 l-68 26 44 47 c54 59 89 116 120 201
30 81 41 263 23 354 -38 179 -178 325 -358 372 -77 20 -309 20 -386 0 -180
-47 -320 -193 -358 -372 -18 -91 -7 -273 23 -354 33 -88 68 -147 121 -202 l44
-45 -68 -27 c-125 -49 -262 -163 -335 -279 -16 -25 -31 -46 -34 -46 -3 0 -18
21 -35 48 -71 114 -222 238 -344 282 l-57 21 48 52 c52 57 95 132 124 217 16
46 19 85 19 235 l0 180 -32 67 c-44 93 -100 151 -191 196 l-76 37 -345 2
c-274 2 -352 0 -376 -11z m699 -158 c26 -8 60 -31 92 -63 68 -67 77 -105 72
-282 -3 -130 -5 -142 -35 -205 -44 -93 -100 -151 -191 -196 -72 -35 -81 -37
-171 -37 -87 0 -102 3 -163 32 -93 44 -151 100 -196 191 l-37 76 -3 248 -4
248 298 0 c204 0 310 -4 338 -12z m1594 -27 c70 -38 100 -69 140 -145 25 -48
27 -59 27 -182 l0 -130 -37 -76 c-45 -91 -103 -147 -196 -191 -61 -29 -76 -32
-162 -32 -86 0 -101 3 -162 32 -93 44 -151 100 -196 191 l-37 76 0 130 c0 119
3 136 25 181 42 86 123 152 215 176 17 5 95 7 175 6 144 -3 145 -3 208 -36z
m1600 0 c70 -38 100 -69 140 -145 25 -48 27 -59 27 -182 l0 -130 -37 -76 c-45
-91 -103 -147 -196 -191 -61 -29 -76 -32 -162 -32 -86 0 -101 3 -162 32 -93
44 -151 100 -196 191 l-37 76 0 130 c0 119 3 136 25 181 42 86 123 152 215
176 17 5 95 7 175 6 144 -3 145 -3 208 -36z m-228 -916 c41 0 95 4 119 8 l44
8 -6 -42 c-6 -46 -28 -82 -71 -113 -39 -29 -133 -29 -172 0 -43 31 -65 67 -71
113 l-6 42 44 -8 c24 -4 78 -8 119 -8z m-2859 -36 c95 -37 152 -73 215 -136
64 -65 98 -120 131 -210 42 -116 127 -103 -687 -103 -814 0 -729 -13 -687 103
60 165 171 278 330 339 88 34 123 37 382 34 240 -2 253 -3 316 -27z m1600 0
c131 -50 217 -119 289 -231 36 -55 80 -168 80 -204 0 -12 -109 -14 -710 -14
-810 0 -726 -12 -689 98 53 156 177 285 332 344 88 34 123 37 382 34 240 -2
253 -3 316 -27z m1002 -156 c30 -44 61 -69 127 -104 37 -19 60 -23 130 -23 73
0 92 4 137 27 29 15 69 43 89 63 39 40 84 125 84 162 0 37 27 37 105 -2 104
-52 191 -140 244 -249 23 -45 44 -101 47 -124 l7 -43 -712 0 c-815 0 -730 -13
-688 103 53 147 143 249 278 316 l83 42 21 -64 c11 -36 33 -82 48 -104z"/>
</g>
</svg>
